<?xml version="1.0" encoding="UTF-8" standalone="no"?>
<!-- Created with Inkscape (http://www.inkscape.org/) -->

<svg
   xmlns:dc="http://purl.org/dc/elements/1.1/"
   xmlns:cc="http://creativecommons.org/ns#"
   xmlns:rdf="http://www.w3.org/1999/02/22-rdf-syntax-ns#"
   xmlns:svg="http://www.w3.org/2000/svg"
   xmlns="http://www.w3.org/2000/svg"
   xmlns:sodipodi="http://sodipodi.sourceforge.net/DTD/sodipodi-0.dtd"
   xmlns:inkscape="http://www.inkscape.org/namespaces/inkscape"
   width="210mm"
   height="297mm"
   viewBox="0 0 210 297"
   version="1.1"
   id="svg8"
   inkscape:version="0.92+devel unknown"
   sodipodi:docname="ferrit-blue-box.svg">
  <defs
     id="defs2" />
  <sodipodi:namedview
     id="base"
     pagecolor="#ffffff"
     bordercolor="#666666"
     borderopacity="1.0"
     inkscape:pageopacity="0.0"
     inkscape:pageshadow="2"
     inkscape:zoom="1.979899"
     inkscape:cx="69.214486"
     inkscape:cy="838.9162"
     inkscape:document-units="mm"
     inkscape:current-layer="layer1"
     inkscape:document-rotation="0"
     showgrid="false"
     inkscape:snap-text-baseline="false"
     inkscape:window-width="1316"
     inkscape:window-height="757"
     inkscape:window-x="116"
     inkscape:window-y="21"
     inkscape:window-maximized="0">
    <inkscape:grid
       type="xygrid"
       id="grid907" />
  </sodipodi:namedview>
  <metadata
     id="metadata5">
    <rdf:RDF>
      <cc:Work
         rdf:about="">
        <dc:format>image/svg+xml</dc:format>
        <dc:type
           rdf:resource="http://purl.org/dc/dcmitype/StillImage" />
        <dc:title />
      </cc:Work>
    </rdf:RDF>
  </metadata>
  <g
     inkscape:label="Layer 1"
     inkscape:groupmode="layer"
     id="layer1">
    <rect
       style="fill:#2b72b5;fill-opacity:1;stroke:none;stroke-width:0.10849801"
       id="rect927"
       width="48.169815"
       height="20.934866"
       x="7.4605913"
       y="68.733177" />
    <g
       aria-label="ferrit"
       transform="matrix(1.0917633,0,0,0.91594945,-23.106784,-0.04111042)"
       style="font-weight:500;font-size:20.6801033px;font-family:Roboto;-inkscape-font-specification:'Roboto, Medium';letter-spacing:-0.93787497px;writing-mode:lr-tb;fill:#ffffff;fill-opacity:1;stroke-width:0.24234495"
       id="text12">
      <path
         inkscape:connector-curvature="0"
         d="m 36.316457,85.772579 h -2.211398 v 9.118229 h -2.46384 v -9.118229 h -1.666122 v -1.80749 h 1.666122 v -1.040063 q 0,-1.827685 1.029966,-2.786967 1.029966,-0.96938 2.807162,-0.96938 0.676547,0 1.383386,0.181759 l -0.06059,1.918564 q -0.424104,-0.08078 -0.949184,-0.08078 -1.746904,0 -1.746904,1.736806 v 1.040063 h 2.211398 z"
         style="letter-spacing:-0.93787497px;fill:#ffffff;fill-opacity:1;stroke-width:0.24234495"
         id="path46" />
      <path
         inkscape:connector-curvature="0"
         d="m 45.971077,93.03283 q -0.525081,0.767426 -1.555047,1.413679 -1.019869,0.646253 -2.655697,0.646253 -2.433547,0 -3.827031,-1.514656 -1.393483,-1.514656 -1.393483,-3.766444 v -0.414006 q 0,-2.585013 1.423776,-4.109767 1.433875,-1.524754 3.514002,-1.524754 2.383059,0 3.5241,1.514656 1.151138,1.514656 1.151138,3.87752 v 1.040063 h -7.139078 q 0.100977,1.262214 0.848207,2.100323 0.757328,0.828012 2.049835,0.828012 0.888598,0 1.565144,-0.353419 0.676546,-0.363518 1.171334,-0.999673 z m -4.49348,-7.300642 q -1.00977,0 -1.625731,0.70684 -0.61596,0.706839 -0.797718,1.958955 h 4.66514 V 88.216224 Q 43.6688,87.256942 43.18411,86.499614 42.69942,85.732188 41.477597,85.732188 Z"
         style="letter-spacing:-0.93787497px;fill:#ffffff;fill-opacity:1;stroke-width:0.24234495"
         id="path48" />
      <path
         inkscape:connector-curvature="0"
         d="m 51.849154,86.125999 q -1.706513,0 -2.282082,1.292506 v 7.472303 H 47.123427 V 83.965089 h 2.342668 l 0.06059,1.231921 q 0.403908,-0.666449 1.019869,-1.050162 0.61596,-0.383713 1.443972,-0.383713 0.494787,0 0.868402,0.131271 l -0.0202,2.312374 Q 52.333843,86.126 51.849153,86.126 Z"
         style="letter-spacing:-0.93787497px;fill:#ffffff;fill-opacity:1;stroke-width:0.24234495"
         id="path50" />
      <path
         inkscape:connector-curvature="0"
         d="m 58.181628,86.125999 q -1.706513,0 -2.282082,1.292506 v 7.472303 H 53.455901 V 83.965089 h 2.342668 l 0.06059,1.231921 q 0.403908,-0.666449 1.019868,-1.050162 0.61596,-0.383713 1.443972,-0.383713 0.494788,0 0.868403,0.131271 l -0.0202,2.312374 Q 58.666316,86.126 58.181627,86.126 Z"
         style="letter-spacing:-0.93787497px;fill:#ffffff;fill-opacity:1;stroke-width:0.24234495"
         id="path52" />
      <path
         d="M 62.393583,83.965089 V 94.890808 H 59.93984 V 83.965089 Z"
         style="letter-spacing:-0.93787497px;fill:#ffffff;fill-opacity:1;stroke-width:0.24234495"
         id="path54"
         inkscape:connector-curvature="0"
         sodipodi:nodetypes="ccccc" />
      <path
         inkscape:connector-curvature="0"
         d="m 69.210746,94.850417 q -0.292833,0.100977 -0.686644,0.171661 -0.39381,0.07068 -0.928989,0.07068 -1.221822,0 -2.029639,-0.686644 -0.797719,-0.696742 -0.797719,-2.383059 v -6.25048 h -1.807489 v -1.80749 h 1.807489 V 81.309393 H 67.2114 v 2.655696 h 1.928662 v 1.80749 H 67.2114 v 6.109113 q 0,0.737132 0.313029,0.959282 0.323127,0.212051 0.828012,0.212051 0.242345,0 0.48469,-0.03029 0.242345,-0.04039 0.373615,-0.07068 z"
         style="letter-spacing:-0.93787497px;fill:#ffffff;fill-opacity:1;stroke-width:0.24234495"
         id="path56" />
    </g>
    <circle
       style="fill:#ffffff;fill-opacity:1;stroke:none;stroke-width:0.15263487"
       id="path59"
       cx="43.692169"
       cy="74.37397"
       r="1.6377949" />
  </g>
</svg>
